<svg width="209" height="261" viewBox="0 0 209 261" fill="none" xmlns="http://www.w3.org/2000/svg">
<path d="M34.6906 222.13L26.0483 238.892V246.698H19.1833V238.892L10.541 222.13H18.3469L22.6681 231.609L26.9892 222.13H34.6906ZM43.4782 222.13V236.383C43.4782 237.707 43.7802 238.73 44.3843 239.45C45.0115 240.17 45.9524 240.53 47.2069 240.53C48.4615 240.53 49.4024 240.17 50.0296 239.45C50.6801 238.706 51.0054 237.684 51.0054 236.383V222.13H57.8355V236.383C57.8355 238.637 57.3593 240.565 56.4068 242.168C55.4543 243.748 54.1533 244.944 52.5038 245.757C50.8776 246.547 49.0655 246.942 47.0676 246.942C45.0696 246.942 43.2808 246.547 41.701 245.757C40.1444 244.944 38.9132 243.748 38.0071 242.168C37.1243 240.588 36.6829 238.66 36.6829 236.383V222.13H43.4782ZM90.2759 222.13V246.698H83.4457V233.142L78.811 246.698H73.0959L68.4263 233.038V246.698H61.5961V222.13H69.8551L76.0231 238.091L82.0518 222.13H90.2759Z" fill="#FF642F"/>
<path d="M110.995 250.81L108.277 246.733C107.511 246.872 106.732 246.942 105.942 246.942C103.643 246.942 101.528 246.408 99.6002 245.339C97.6719 244.247 96.1386 242.749 95.0002 240.844C93.8851 238.916 93.3275 236.743 93.3275 234.327C93.3275 231.911 93.8851 229.751 95.0002 227.846C96.1386 225.917 97.6719 224.419 99.6002 223.35C101.528 222.282 103.643 221.747 105.942 221.747C108.266 221.747 110.38 222.282 112.285 223.35C114.213 224.419 115.735 225.917 116.85 227.846C117.965 229.751 118.523 231.911 118.523 234.327C118.523 236.348 118.116 238.219 117.303 239.938C116.49 241.634 115.375 243.051 113.957 244.189L119.15 250.81H110.995ZM100.297 234.327C100.297 236.255 100.797 237.789 101.796 238.927C102.795 240.042 104.177 240.6 105.942 240.6C107.685 240.6 109.056 240.031 110.055 238.892C111.077 237.754 111.588 236.232 111.588 234.327C111.588 232.376 111.077 230.842 110.055 229.727C109.056 228.589 107.685 228.02 105.942 228.02C104.177 228.02 102.795 228.589 101.796 229.727C100.797 230.842 100.297 232.376 100.297 234.327ZM128.318 222.13V236.383C128.318 237.707 128.62 238.73 129.224 239.45C129.851 240.17 130.792 240.53 132.047 240.53C133.301 240.53 134.242 240.17 134.869 239.45C135.52 238.706 135.845 237.684 135.845 236.383V222.13H142.675V236.383C142.675 238.637 142.199 240.565 141.246 242.168C140.294 243.748 138.993 244.944 137.343 245.757C135.717 246.547 133.905 246.942 131.907 246.942C129.909 246.942 128.12 246.547 126.541 245.757C124.984 244.944 123.753 243.748 122.847 242.168C121.964 240.588 121.522 238.66 121.522 236.383V222.13H128.318ZM153.266 222.13V246.698H146.436V222.13H153.266ZM156.319 234.362C156.319 231.946 156.819 229.797 157.818 227.915C158.84 226.01 160.28 224.535 162.139 223.49C163.997 222.421 166.135 221.887 168.551 221.887C171.617 221.887 174.196 222.711 176.287 224.361C178.378 225.987 179.725 228.206 180.329 231.017H172.976C172.535 230.087 171.919 229.379 171.129 228.891C170.363 228.403 169.468 228.159 168.446 228.159C166.866 228.159 165.6 228.728 164.648 229.867C163.719 230.982 163.254 232.48 163.254 234.362C163.254 236.267 163.719 237.789 164.648 238.927C165.6 240.042 166.866 240.6 168.446 240.6C169.468 240.6 170.363 240.356 171.129 239.868C171.919 239.38 172.535 238.672 172.976 237.742H180.329C179.725 240.553 178.378 242.784 176.287 244.433C174.196 246.059 171.617 246.872 168.551 246.872C166.135 246.872 163.997 246.35 162.139 245.304C160.28 244.236 158.84 242.76 157.818 240.879C156.819 238.974 156.319 236.801 156.319 234.362ZM198.095 246.698L190.394 235.93V246.698H183.564V222.13H190.394V232.724L198.025 222.13H205.901L196.876 234.048L206.354 246.698H198.095Z" fill="#F8F8F8"/>
<path d="M190.668 94.1298C204.545 79.3019 208.946 56.3072 201.524 37.4033C194.102 18.4993 175.232 4.64111 154.973 3.21626C124.265 1.05629 92.3053 30.168 91.034 60.9273C90.723 68.4497 92.7929 76.9812 99.3326 80.7116C105.419 84.1836 113.728 81.9617 118.294 76.646C122.86 71.3304 124.009 63.6685 122.57 56.8102C121.131 49.9519 117.388 43.7862 113.09 38.2515C98.5816 19.5689 78.4579 1.44079 53.2164 3.21626C32.9579 4.64147 14.0879 18.4993 6.6656 37.4033C-0.756661 56.3072 3.64401 79.3019 17.5213 94.1298" stroke="#FF642F" stroke-width="6.18942" stroke-miterlimit="10" stroke-linecap="round" stroke-linejoin="round"/>
<path d="M132.885 158.875L112.351 178.85C107.833 183.246 100.59 183.082 96.2759 178.484C90.4836 172.313 82.6919 164.12 77.3003 158.875" stroke="#FF642F" stroke-width="6.18942" stroke-miterlimit="10" stroke-linecap="round" stroke-linejoin="round"/>
<path d="M59.2669 139.728C67.7911 131.786 65.7027 115.689 54.6022 103.775C43.5017 91.8599 27.5927 88.6392 19.0684 96.581C10.5441 104.523 12.6325 120.62 23.733 132.534C34.8335 144.449 50.7426 147.67 59.2669 139.728Z" stroke="#FF642F" stroke-width="6.18942" stroke-miterlimit="10" stroke-linecap="round" stroke-linejoin="round"/>
<path d="M186.316 100.131L157.945 133.11" stroke="#FF642F" stroke-width="6.18942" stroke-miterlimit="10" stroke-linecap="round" stroke-linejoin="round"/>
<path d="M146.825 118.213L168.197 95.5762C178.902 85.999 204.883 105.644 193.239 120.84L172.076 143.256" stroke="#FF642F" stroke-width="6.18942" stroke-miterlimit="10" stroke-linecap="round" stroke-linejoin="round"/>
</svg>
